<?xml version="1.0" encoding="UTF-8"?>
<svg version="1.1" xmlns="http://www.w3.org/2000/svg" width="512" height="512">
<path d="M0 0 C0.69351563 0.42410156 1.38703125 0.84820313 2.1015625 1.28515625 C9.67706671 6.3780514 14.7585199 14.16789929 17 23 C17.47726124 25.99458036 17.79693449 28.9750242 18 32 C18.59167969 31.72285156 19.18335938 31.44570313 19.79296875 31.16015625 C29.57407773 26.67648313 38.13230616 25.51058 48.515625 28.9609375 C58.47873708 33.12789947 64.97951464 39.89804 69.23828125 49.69140625 C70.98049116 54.97164244 71.14882543 60.2644702 71.14526367 65.77783203 C71.14862228 66.53306152 71.1519809 67.28829102 71.15544128 68.06640625 C71.16489135 70.546892 71.16689096 73.0273099 71.16796875 75.5078125 C71.17118393 77.23843412 71.1745482 78.96905546 71.17805481 80.69967651 C71.18403007 84.31915925 71.1858962 87.93861815 71.18530273 91.55810547 C71.18520085 96.19631178 71.19888731 100.83436592 71.21607494 105.47253609 C71.22718673 109.04300643 71.22922225 112.61343977 71.22869301 116.18392563 C71.22987304 117.89435224 71.23429614 119.60477981 71.24202538 121.31518936 C71.25181481 123.70388794 71.24895216 126.09225317 71.24291992 128.48095703 C71.24853943 129.18650726 71.25415894 129.8920575 71.25994873 130.61898804 C71.21787392 137.17053536 71.21787392 137.17053536 69 140 C66.525 140.99 66.525 140.99 64 142 C63.67 145.63 63.34 149.26 63 153 C64.485 152.54625 65.97 152.0925 67.5 151.625 C98.93976515 143.14189201 133.88733477 148.55525243 162.1875 164.25 C193.97466015 182.57738641 215.4658821 211.80338488 225 247 C233.36258676 279.33626387 226.91924524 311.68802934 212.5078125 341.0390625 C212.05148437 341.99554688 211.59515625 342.95203125 211.125 343.9375 C210.71507812 344.77152344 210.30515625 345.60554688 209.8828125 346.46484375 C208.52798355 350.35548087 208.39210038 353.55623839 210 357.375 C210.33 357.91125 210.66 358.4475 211 359 C211.7734375 358.95359375 212.546875 358.9071875 213.34375 358.859375 C225.55901594 358.43607371 230.74477727 362.45079002 239.46915054 370.55556107 C244.92033836 375.69905044 250.20505976 381.0170487 255.51171875 386.30859375 C256.1888624 386.98291002 256.86600605 387.6572263 257.5636692 388.35197639 C261.14059018 391.91401531 264.7147109 395.4788348 268.28637695 399.04614258 C271.95093293 402.7052002 275.62469182 406.35487032 279.30066204 410.00245571 C282.151498 412.83458109 284.99551949 415.67347692 287.83777809 418.51420784 C289.18872764 419.86215426 290.54214951 421.20762803 291.89819908 422.55044365 C303.24194677 433.79125715 312.57194991 443.35155637 314.4375 459.875 C313.83493197 471.18473845 309.24260842 479.48297331 301 487 C294.56921281 492.45218914 285.61377406 494.63922563 277.24609375 494.28125 C265.18610044 492.7711291 256.69211876 486.1500476 248.34057617 477.76049805 C247.63367645 477.06206787 246.92677673 476.3636377 246.19845581 475.64404297 C243.88884185 473.35762512 241.59039471 471.06037843 239.29296875 468.76171875 C237.67902601 467.15488583 236.06478871 465.54834871 234.45027161 463.9420929 C231.07892291 460.58414747 227.71352053 457.220373 224.35180664 453.8527832 C220.05365467 449.54872606 215.73750341 445.2632308 211.41627026 440.9823637 C208.08151546 437.67350971 204.7583529 434.35319875 201.43834877 431.02955055 C199.85195062 429.44484002 198.26158918 427.86408627 196.66713524 426.28748131 C194.43674294 424.07933378 192.22293509 421.85573905 190.01245117 419.62768555 C189.35836777 418.98686539 188.70428436 418.34604523 188.03038025 417.68580627 C182.88927486 412.44972279 179.43369894 406.89027948 178.609375 399.49609375 C178.65578125 398.48675781 178.7021875 397.47742188 178.75 396.4375 C178.78609375 395.40496094 178.8221875 394.37242187 178.859375 393.30859375 C178.90578125 392.54675781 178.9521875 391.78492188 179 391 C174.57140863 388.64731083 170.75090775 388.80197405 166 390 C163.32175529 391.05369122 160.83496441 392.36953432 158.3125 393.75 C128.69917883 409.1437088 95.3234918 412.08087295 63 404 C63.33 407.96 63.66 411.92 64 416 C65.65 416.66 67.3 417.32 69 418 C71.59377796 421.36498695 71.25365336 424.97374121 71.25878906 429.09179688 C71.26404602 430.15105125 71.26404602 430.15105125 71.26940918 431.23170471 C71.27819573 433.56082046 71.27238833 435.88963128 71.265625 438.21875 C71.26697254 439.84012917 71.26891381 441.46150795 71.27142334 443.08288574 C71.27437043 446.47896171 71.27009032 449.87493238 71.26074219 453.27099609 C71.24934786 457.62230562 71.25590956 461.97336841 71.26788712 466.32466888 C71.27511693 469.67211768 71.27281263 473.01950806 71.26763153 476.36695862 C71.26629814 477.97131886 71.26793189 479.57568442 71.27259064 481.18003845 C71.27767432 483.42290277 71.26991999 485.66536847 71.25878906 487.90820312 C71.25719788 489.18409302 71.25560669 490.45998291 71.25396729 491.77453613 C71.01485787 494.81130037 70.70426384 496.51119504 69 499 C66.0255796 500.4872102 63.34203871 500.13288529 60.02210999 500.14044189 C59.29564551 500.14341302 58.56918104 500.14638414 57.82070249 500.1494453 C55.37402778 500.15815228 52.92740189 500.15964221 50.48071289 500.16113281 C48.73161209 500.16575951 46.9825123 500.17078397 45.2334137 500.17617798 C40.47315232 500.18931676 35.71290506 500.1957496 30.95262837 500.20018864 C27.98130492 500.20311648 25.00998536 500.20722069 22.03866386 500.21169281 C12.74978053 500.22537052 3.46090605 500.23503631 -5.82798666 500.2388947 C-16.5653183 500.24337879 -27.30252286 500.26094181 -38.03981584 500.2898953 C-46.33028296 500.31147813 -54.62071424 500.32159713 -62.91120917 500.32293582 C-67.8672111 500.32398613 -72.82309362 500.32994188 -77.77906609 500.34775543 C-82.43871012 500.36417789 -87.09814421 500.36642014 -91.75780678 500.35761642 C-93.47070247 500.35684296 -95.18360918 500.36122925 -96.89647675 500.37107468 C-99.22961338 500.38370195 -101.56199599 500.37796846 -103.89512634 500.36749268 C-105.20239654 500.36895924 -106.50966673 500.3704258 -107.85655117 500.3719368 C-111 500 -111 500 -112.91997528 498.69759655 C-114.79870342 495.74458783 -114.42075946 492.38172144 -114.40063477 488.99047852 C-114.41110336 487.76516922 -114.41110336 487.76516922 -114.42178345 486.5151062 C-114.44183643 483.80293577 -114.44126046 481.09114449 -114.44140625 478.37890625 C-114.45318819 476.48053473 -114.46655441 474.58217243 -114.48143005 472.68382263 C-114.51770959 467.66585014 -114.53782419 462.64795909 -114.55297852 457.62988281 C-114.5777179 449.65999473 -114.61832642 441.69028758 -114.67487907 433.72056389 C-114.6909065 430.96483276 -114.69496071 428.20927791 -114.69789124 425.45350647 C-114.73348499 416.65877777 -115.04201351 407.95600229 -115.89038086 399.19897461 C-116.00552835 397.99011644 -116.00552835 397.99011644 -116.12300205 396.75683689 C-118.16290403 377.67553239 -127.68969428 360.51672529 -137.1875 344.1875 C-150.88257412 320.61958072 -156.34500992 297.50833947 -156.25878906 270.3515625 C-156.26150991 268.87599008 -156.26507688 267.40041903 -156.26940918 265.92485046 C-156.27839933 261.97699672 -156.27504699 258.0292494 -156.26865101 254.0813942 C-156.26352831 249.92299396 -156.26829894 245.76460183 -156.27142334 241.60620117 C-156.2750417 234.63670236 -156.27031686 227.66724622 -156.26074219 220.69775391 C-156.24982745 212.66038492 -156.25341363 204.62311719 -156.264395 196.58575058 C-156.27348806 189.65028394 -156.27474431 182.71484766 -156.26951766 175.77937698 C-156.26641344 171.65174957 -156.26594647 167.5241697 -156.27259064 163.39654541 C-156.27839422 159.52218209 -156.27431248 155.64794897 -156.26280212 151.77359962 C-156.26017306 150.35831734 -156.2608904 148.94302397 -156.26532745 147.5277462 C-156.30213542 134.58865626 -155.31638465 124.657717 -146.07421875 114.984375 C-138.67126053 108.14202915 -130.93068712 105.61826373 -120.8972168 105.71020508 C-117.70251728 106.02975579 -115.15706283 106.87168619 -112.1640625 108.01953125 C-111.19162598 108.38796143 -110.21918945 108.7563916 -109.21728516 109.13598633 C-108.48558105 109.42111084 -107.75387695 109.70623535 -107 110 C-106.99635437 109.39802292 -106.99270874 108.79604584 -106.98895264 108.17582703 C-106.94687752 101.86415112 -106.87735957 95.55318557 -106.79248047 89.24194336 C-106.76439639 86.89208102 -106.74311992 84.54212643 -106.72900391 82.19213867 C-106.70740015 78.79818918 -106.66065973 75.40533446 -106.609375 72.01171875 C-106.60814636 70.97480392 -106.60691772 69.9378891 -106.60565186 68.86955261 C-106.38667993 57.76243082 -103.22952304 49.20115065 -95.515625 41.16796875 C-86.74662352 33.61083238 -77.14418196 32.29501425 -65.99560547 32.79443359 C-61.64327755 33.2427649 -57.8159634 34.94525048 -54 37 C-53.92523438 35.98421875 -53.85046875 34.9684375 -53.7734375 33.921875 C-52.66833389 21.50838236 -49.55340846 11.34495109 -40.0859375 2.62109375 C-29.318605 -5.74677701 -11.62866563 -7.61796259 0 0 Z M80 164.3125 C79.22350098 164.43012695 78.44700195 164.54775391 77.64697266 164.66894531 C72.46687126 165.53953188 67.86757861 167.02531186 63 169 C63 171.97 63 174.94 63 178 C64.4540625 178.6496875 64.4540625 178.6496875 65.9375 179.3125 C69 181 69 181 70 184 C70.11871313 186.78387813 70.18531863 189.54718903 70.2109375 192.33203125 C70.23905163 194.03581615 70.26771627 195.73959203 70.296875 197.44335938 C70.33775334 200.11091408 70.37465768 202.77830887 70.40136719 205.44604492 C70.03979406 225.42006906 70.03979406 225.42006906 78 243 C82.35095992 242.48823532 84.42525616 241.13750021 87.59765625 238.1640625 C88.46793457 237.34969727 89.33821289 236.53533203 90.23486328 235.69628906 C95.54992045 230.51356865 100.74945242 225.21339074 105.89282227 219.86035156 C117.82662857 207.46732132 129.97901598 199.18974392 147.64160156 198.47827148 C162.4810552 198.25692558 175.95700931 201.35961835 187 212 C191.24787837 217.33829358 193.35690572 223.15930704 193 230 C191.38749343 241.72168238 180.1304764 250.02256658 172.15063477 257.89941406 C171.31682281 258.72694687 170.48301086 259.55447968 169.62393188 260.40708923 C167.8310165 262.18626193 166.03702183 263.96434754 164.24203682 265.74143219 C161.39120744 268.56534993 158.54482481 271.39367199 155.70018005 274.22381592 C154.71895284 275.19990132 153.73771823 276.1759793 152.7564764 277.15205002 C152.26558242 277.64035844 151.77468843 278.12866687 151.26891887 278.63177252 C144.66274187 285.20215653 138.05174889 291.76763855 131.43041992 298.32275391 C126.93959262 302.76876531 122.45619252 307.22212929 117.98071903 311.68359733 C115.62392257 314.03240991 113.262647 316.37623017 110.8942585 318.71338654 C98.56399827 330.88460999 86.53504729 342.81028221 79.5 358.9375 C79.1803125 359.62650391 78.860625 360.31550781 78.53125 361.02539062 C76.60102709 365.27590233 75.1776289 369.48379319 74 374 C71.36 374.33 68.72 374.66 66 375 C65.01 381.435 65.01 381.435 64 388 C91.87353239 398.22029521 122.32193029 393.82945645 148.86035156 382.00048828 C152.62573485 380.23981499 156.25269619 378.27884761 159.80859375 376.12890625 C165.04757419 373.43003754 171.23858989 373.35799048 177 374 C179.69416194 374.88263674 182.20791353 375.92162719 184.7734375 377.125 C187.22175416 378.2438356 187.22175416 378.2438356 191 378 C193.22341381 376.26084364 193.22341381 376.26084364 195.25 374 C195.95640625 373.2575 196.6628125 372.515 197.390625 371.75 C197.92171875 371.1725 198.4528125 370.595 199 370 C198.6390625 369.18917969 198.278125 368.37835938 197.90625 367.54296875 C194.15476146 358.59150027 191.9409611 350.87266676 195.4375 341.5 C196.91011696 338.18001409 198.52483334 334.93355199 200.12890625 331.67578125 C204.92859304 321.86907563 208.74938367 312.74327353 211 302 C211.22300781 301.0925 211.44601562 300.185 211.67578125 299.25 C217.95727028 269.85092208 210.05857397 238.84691757 194 214 C191.50996693 210.48914878 188.83907421 207.23200651 186 204 C185.34902344 203.2059375 184.69804687 202.411875 184.02734375 201.59375 C166.49023446 180.87701529 141.56935138 168.34707974 115 164 C114.24203125 163.86980469 113.4840625 163.73960937 112.703125 163.60546875 C101.81608702 162.07064197 90.81921139 162.64474159 80 164.3125 Z " fill="#EEE1DD" transform="translate(177,8)"/>
<path d="M0 0 C25.64026078 22.69094406 44.10249886 52.70423729 46.73193359 87.53271484 C48.20631705 115.43778895 43.52703619 138.54687762 31.23974609 163.57177734 C30.78341797 164.52826172 30.32708984 165.48474609 29.85693359 166.47021484 C29.44701172 167.30423828 29.03708984 168.13826172 28.61474609 168.99755859 C27.25991714 172.88819571 27.12403397 176.08895324 28.73193359 179.90771484 C29.06193359 180.44396484 29.39193359 180.98021484 29.73193359 181.53271484 C30.50537109 181.48630859 31.27880859 181.43990234 32.07568359 181.39208984 C44.29094953 180.96878855 49.47671087 184.98350486 58.20108414 193.08827591 C63.65227195 198.23176529 68.93699335 203.54976355 74.24365234 208.84130859 C74.92079599 209.51562487 75.59793964 210.18994114 76.2956028 210.88469124 C79.87252377 214.44673015 83.44664449 218.01154965 87.01831055 221.57885742 C90.68286653 225.23791504 94.35662542 228.88758516 98.03259563 232.53517056 C100.88343159 235.36729593 103.72745309 238.20619176 106.56971169 241.04692268 C107.92066123 242.3948691 109.2740831 243.74034287 110.63013268 245.08315849 C121.97388036 256.32397199 131.30388351 265.88427121 133.16943359 282.40771484 C132.56686556 293.71745329 127.97454201 302.01568815 119.73193359 309.53271484 C113.30114641 314.98490398 104.34570765 317.17194047 95.97802734 316.81396484 C83.91803404 315.30384394 75.42405235 308.68276245 67.07250977 300.29321289 C66.36561005 299.59478271 65.65871033 298.89635254 64.9303894 298.17675781 C62.62077544 295.89033996 60.3223283 293.59309328 58.02490234 291.29443359 C56.4109596 289.68760067 54.7967223 288.08106356 53.1822052 286.47480774 C49.8108565 283.11686232 46.44545412 279.75308784 43.08374023 276.38549805 C38.78558827 272.08144091 34.46943701 267.79594565 30.14820385 263.51507854 C26.81344905 260.20622455 23.49028649 256.88591359 20.17028236 253.5622654 C18.58388421 251.97755486 16.99352278 250.39680111 15.39906883 248.82019615 C13.16867654 246.61204862 10.95486868 244.3884539 8.74438477 242.16040039 C8.09030136 241.51958023 7.43621796 240.87876007 6.76231384 240.21852112 C1.62120845 234.98243764 -1.83436747 229.42299432 -2.65869141 222.02880859 C-2.61228516 221.01947266 -2.56587891 220.01013672 -2.51806641 218.97021484 C-2.48197266 217.93767578 -2.44587891 216.90513672 -2.40869141 215.84130859 C-2.36228516 215.07947266 -2.31587891 214.31763672 -2.26806641 213.53271484 C-6.69665778 211.18002568 -10.51715866 211.33468889 -15.26806641 212.53271484 C-17.94631112 213.58640606 -20.43310199 214.90224916 -22.95556641 216.28271484 C-52.20791102 231.48877944 -87.3620645 235.70369821 -119.14306641 226.09130859 C-154.30484593 214.84869481 -182.53070339 191.56936338 -199.50683594 158.70507812 C-208.09284697 141.19114941 -212.64386315 122.94690195 -212.58374023 103.48266602 C-212.58059631 101.36535266 -212.60407047 99.24946453 -212.62939453 97.13232422 C-212.68943075 84.33848582 -210.86231566 71.86700945 -206.70556641 59.72021484 C-206.45653564 58.98722168 -206.20750488 58.25422852 -205.95092773 57.49902344 C-199.35870912 39.03768427 -188.63391167 23.72032998 -175.26806641 9.53271484 C-174.66865234 8.86884766 -174.06923828 8.20498047 -173.45166016 7.52099609 C-129.10676432 -39.69721912 -48.45671058 -41.34486855 0 0 Z M-101.26806641 -13.15478516 C-102.04456543 -13.0371582 -102.82106445 -12.91953125 -103.62109375 -12.79833984 C-108.80119515 -11.92775328 -113.40048779 -10.4419733 -118.26806641 -8.46728516 C-118.26806641 -5.49728516 -118.26806641 -2.52728516 -118.26806641 0.53271484 C-116.81400391 1.18240234 -116.81400391 1.18240234 -115.33056641 1.84521484 C-112.26806641 3.53271484 -112.26806641 3.53271484 -111.26806641 6.53271484 C-111.14935327 9.31659297 -111.08274778 12.07990387 -111.05712891 14.86474609 C-111.02901477 16.56853099 -111.00035014 18.27230688 -110.97119141 19.97607422 C-110.93031307 22.64362893 -110.89340873 25.31102372 -110.86669922 27.97875977 C-111.22827235 47.9527839 -111.22827235 47.9527839 -103.26806641 65.53271484 C-98.91710649 65.02095017 -96.84281024 63.67021505 -93.67041016 60.69677734 C-92.80013184 59.88241211 -91.92985352 59.06804687 -91.03320312 58.22900391 C-85.71814596 53.0462835 -80.51861399 47.74610558 -75.37524414 42.39306641 C-63.44143783 30.00003616 -51.28905042 21.72245877 -33.62646484 21.01098633 C-18.7870112 20.78964042 -5.31105709 23.89233319 5.73193359 34.53271484 C9.97981197 39.87100842 12.08883931 45.69202189 11.73193359 52.53271484 C10.11942702 64.25439723 -1.13759001 72.55528142 -9.11743164 80.43212891 C-9.95124359 81.25966171 -10.78505554 82.08719452 -11.64413452 82.93980408 C-13.4370499 84.71897677 -15.23104458 86.49706238 -17.02602959 88.27414703 C-19.87685896 91.09806478 -22.72324159 93.92638684 -25.56788635 96.75653076 C-26.54911357 97.73261617 -27.53034818 98.70869415 -28.51159 99.68476486 C-29.00248399 100.17307329 -29.49337797 100.66138171 -29.99914753 101.16448736 C-36.60532454 107.73487137 -43.21631751 114.30035339 -49.83764648 120.85546875 C-54.32847379 125.30148016 -58.81187388 129.75484414 -63.28734738 134.21631217 C-65.64414383 136.56512475 -68.00541941 138.90894501 -70.37380791 141.24610138 C-82.70406814 153.41732484 -94.73301911 165.34299705 -101.76806641 181.47021484 C-102.08775391 182.15921875 -102.40744141 182.84822266 -102.73681641 183.55810547 C-104.66703932 187.80861717 -106.09043751 192.01650803 -107.26806641 196.53271484 C-109.90806641 196.86271484 -112.54806641 197.19271484 -115.26806641 197.53271484 C-116.25806641 203.96771484 -116.25806641 203.96771484 -117.26806641 210.53271484 C-89.39453401 220.75301005 -58.94613611 216.36217129 -32.40771484 204.53320312 C-28.64233156 202.77252984 -25.01537022 200.81156246 -21.45947266 198.66162109 C-16.22049222 195.96275238 -10.02947652 195.89070532 -4.26806641 196.53271484 C-1.57390447 197.41535159 0.93984712 198.45434204 3.50537109 199.65771484 C5.95368776 200.77655045 5.95368776 200.77655045 9.73193359 200.53271484 C11.9553474 198.79355849 11.9553474 198.79355849 13.98193359 196.53271484 C14.68833984 195.79021484 15.39474609 195.04771484 16.12255859 194.28271484 C16.65365234 193.70521484 17.18474609 193.12771484 17.73193359 192.53271484 C17.37099609 191.72189453 17.01005859 190.91107422 16.63818359 190.07568359 C12.88669506 181.12421511 10.6728947 173.40538161 14.16943359 164.03271484 C15.64205055 160.71272893 17.25676693 157.46626684 18.86083984 154.20849609 C23.66052663 144.40179047 27.48131726 135.27598838 29.73193359 124.53271484 C29.95494141 123.62521484 30.17794922 122.71771484 30.40771484 121.78271484 C36.68920388 92.38363693 28.79050756 61.37963242 12.73193359 36.53271484 C10.24190053 33.02186362 7.57100781 29.76472136 4.73193359 26.53271484 C4.08095703 25.73865234 3.42998047 24.94458984 2.75927734 24.12646484 C-14.77783194 3.40973013 -39.69871502 -9.12020541 -66.26806641 -13.46728516 C-67.02603516 -13.59748047 -67.78400391 -13.72767578 -68.56494141 -13.86181641 C-79.45197939 -15.39664319 -90.44885502 -14.82254357 -101.26806641 -13.15478516 Z " fill="#EEE1DD" transform="translate(358.26806640625,185.46728515625)"/>
<path d="M0 0 C0.69351563 0.42410156 1.38703125 0.84820313 2.1015625 1.28515625 C9.67706671 6.3780514 14.7585199 14.16789929 17 23 C17.47726124 25.99458036 17.79693449 28.9750242 18 32 C18.59167969 31.72285156 19.18335938 31.44570313 19.79296875 31.16015625 C29.57407773 26.67648313 38.13230616 25.51058 48.515625 28.9609375 C58.47873708 33.12789947 64.97951464 39.89804 69.23828125 49.69140625 C70.98049116 54.97164244 71.14882543 60.2644702 71.14526367 65.77783203 C71.14862228 66.53306152 71.1519809 67.28829102 71.15544128 68.06640625 C71.16489135 70.546892 71.16689096 73.0273099 71.16796875 75.5078125 C71.17118393 77.23843412 71.1745482 78.96905546 71.17805481 80.69967651 C71.18403007 84.31915925 71.1858962 87.93861815 71.18530273 91.55810547 C71.18520085 96.19631178 71.19888731 100.83436592 71.21607494 105.47253609 C71.22718673 109.04300643 71.22922225 112.61343977 71.22869301 116.18392563 C71.22987304 117.89435224 71.23429614 119.60477981 71.24202538 121.31518936 C71.25181481 123.70388794 71.24895216 126.09225317 71.24291992 128.48095703 C71.24853943 129.18650726 71.25415894 129.8920575 71.25994873 130.61898804 C71.23683537 134.21801263 71.13414824 137.02126654 69 140 C66.1875 141.4375 66.1875 141.4375 63 142 C59.43553279 140.46079825 58.17152227 139.25728341 56 136 C55.80778173 133.43962373 55.73009071 130.98707729 55.74462891 128.42675781 C55.73919823 127.2725383 55.73919823 127.2725383 55.73365784 126.09500122 C55.72676405 124.42371049 55.72425837 122.75239724 55.72560501 121.08109283 C55.72657006 118.43238618 55.71362954 115.78408559 55.69662476 113.13543701 C55.65035386 105.60464658 55.62575831 98.0738964 55.61914062 90.54296875 C55.61411583 85.93575279 55.58981354 81.32895862 55.55381393 76.72188568 C55.54403507 74.9693124 55.54167353 73.21668095 55.54698563 71.46408844 C55.55408472 69.00587689 55.53671572 66.54891401 55.51416016 64.09082031 C55.52233261 63.3726413 55.53050507 62.65446228 55.53892517 61.91452026 C55.45004928 56.44432898 53.98723654 53.422443 51 49 C46.60169624 44.82725028 42.66046893 42.92278099 36.625 42.6875 C31.38452005 42.84393224 27.13429374 43.91870226 23.26953125 47.6875 C19.97919474 51.43895256 17.87738808 53.95092274 17.86869812 59.04121399 C17.86468994 59.88656708 17.86068176 60.73192017 17.85655212 61.60289001 C17.85708084 62.53226883 17.85760956 63.46164764 17.8581543 64.41918945 C17.85467987 65.39656067 17.85120544 66.37393188 17.84762573 67.38092041 C17.8402612 69.50841513 17.83491955 71.63591757 17.83133507 73.76342201 C17.82418384 77.12971394 17.80852738 80.4958589 17.78999329 83.86210632 C17.73745992 93.43498724 17.68953601 103.00778858 17.67407227 112.58081055 C17.66399992 118.43174749 17.63469304 124.28231646 17.59275246 130.13310814 C17.58042583 132.36460781 17.57532422 134.59615943 17.57755089 136.82769203 C17.5798995 139.94973741 17.55776973 143.07072442 17.5300293 146.19262695 C17.53663071 147.11593307 17.54323212 148.0392392 17.55003357 148.99052429 C17.48957037 153.13117896 17.3244297 155.44776871 15.18952942 159.08171082 C13 161 13 161 9.4375 161.5 C6 161 6 161 4.30839443 159.80113506 C2.5214019 157.34116212 2.62634042 155.7095772 2.62818909 152.68183899 C2.62143158 151.57860794 2.61467407 150.47537689 2.60771179 149.3387146 C2.61543106 148.1277713 2.62315033 146.916828 2.63110352 145.66918945 C2.62532169 143.71187847 2.61953718 141.7545675 2.61365211 139.79725683 C2.61016547 137.69195121 2.614024 135.58676943 2.61987495 133.48147011 C2.63145729 129.08929073 2.61929451 124.69737521 2.60325623 120.30522156 C2.56705447 109.3917094 2.56082727 98.47820297 2.56335449 87.56463623 C2.56506776 79.09068129 2.55787318 70.61694187 2.52337593 62.14304703 C2.5066237 57.78217433 2.50834109 53.42182782 2.52419865 49.06095755 C2.53138541 45.69981754 2.51273954 42.33889781 2.49829102 38.9777832 C2.50803452 37.77696106 2.51777802 36.57613892 2.52781677 35.33892822 C2.46462474 27.96669074 1.83767327 22.11859794 -3.41187191 16.4847765 C-8.8261797 11.6590601 -13.50986738 10.58239299 -20.5703125 10.75 C-26.50147446 11.36028033 -30.22595032 14.61394227 -34 19 C-36.50893091 23.29034041 -37.37611202 26.39756483 -37.38526917 31.35122681 C-37.39491699 32.60740311 -37.40456482 33.86357941 -37.414505 35.15782166 C-37.41014204 36.53701867 -37.40550965 37.91621486 -37.40063477 39.29541016 C-37.40638112 40.75777243 -37.41346547 42.22012996 -37.42178345 43.68247986 C-37.43686667 46.82380188 -37.44267343 49.96495428 -37.44125557 53.1063118 C-37.43921895 58.07311674 -37.45880712 63.039694 -37.48143005 68.00643921 C-37.52236741 77.64957313 -37.54100504 87.29268896 -37.55760193 96.9358902 C-37.57997295 109.21789235 -37.61346592 121.49984186 -37.66480106 133.78175771 C-37.68472927 138.71979835 -37.69430307 143.65771944 -37.69575322 148.59579873 C-37.69850175 151.66506859 -37.70932747 154.7342723 -37.72226334 157.80351448 C-37.72654589 159.22733383 -37.72740108 160.65116821 -37.72458839 162.07499123 C-37.72119086 164.01757973 -37.73110797 165.96017796 -37.74171448 167.90274048 C-37.74334878 168.99003763 -37.74498308 170.07733479 -37.74666691 171.19758034 C-38.00102048 174.01128876 -38.45378963 175.65539591 -40 178 C-42.84083641 179.42041821 -44.85477278 179.31452272 -48 179 C-50.16416931 177.6512146 -50.16416931 177.6512146 -52 175 C-52.60342691 171.42768008 -52.53239727 167.88338197 -52.49829102 164.26806641 C-52.50380981 163.17496658 -52.50932861 162.08186676 -52.51501465 160.9556427 C-52.52434257 158.58155743 -52.52443335 156.20742213 -52.51642036 153.83333206 C-52.50381971 150.07575672 -52.51505434 146.31891911 -52.53245544 142.56137085 C-52.56193498 135.26061966 -52.56477752 127.96002047 -52.56280518 120.65923309 C-52.56131751 110.74276321 -52.57801114 100.82647331 -52.61894035 90.91007614 C-52.62878793 87.2085376 -52.62005542 83.50734808 -52.61024475 79.80581665 C-52.61638918 77.53411632 -52.62330098 75.2624179 -52.63110352 72.99072266 C-52.62338425 71.96194504 -52.61566498 70.93316742 -52.60771179 69.87321472 C-52.65661744 62.97420249 -53.70316537 58.6692943 -58.3125 53.3125 C-63.45967768 48.88353316 -67.74013132 47.36922855 -74.46875 47.58203125 C-79.93103919 48.48398332 -83.64837754 51.57723951 -87.375 55.5 C-90.33510633 60.05400974 -91.24985171 63.69612274 -91.2515564 69.11708069 C-91.25693924 70.34663986 -91.26232208 71.57619904 -91.26786804 72.84301758 C-91.26385429 74.19751022 -91.25968338 75.55200241 -91.25537109 76.90649414 C-91.25812238 78.33914896 -91.26180311 79.77180225 -91.26634216 81.20445251 C-91.27444234 84.28465398 -91.27662565 87.3647829 -91.27439499 90.44499397 C-91.27155947 95.31506904 -91.2859217 100.18499933 -91.30337524 105.05503845 C-91.35038273 118.90166058 -91.3743509 132.7482723 -91.38085938 146.5949707 C-91.38460748 154.24612081 -91.40261375 161.89710658 -91.43595374 169.54818624 C-91.45618906 174.39015877 -91.45852823 179.23170814 -91.44767356 184.07370579 C-91.44506948 187.08404946 -91.45905478 190.09414579 -91.47775459 193.10442543 C-91.48308402 194.50082753 -91.4815669 195.89727497 -91.47271919 197.29365921 C-91.46161926 199.19905526 -91.47735637 201.10455148 -91.49447632 203.00990295 C-91.49556585 204.07637589 -91.49665539 205.14284883 -91.49777794 206.24163914 C-92.12899861 209.70850076 -93.19450299 210.91851116 -96 213 C-99.64460414 213 -101.98677936 212.96469483 -104.69178772 210.38923645 C-106.50145733 207.08416994 -106.37167351 204.53272665 -106.36889648 200.7722168 C-106.37266296 200.05135895 -106.37642944 199.3305011 -106.38031006 198.58779907 C-106.38673528 197.02566006 -106.38641927 195.46348194 -106.38012505 193.90134239 C-106.37100334 191.42467083 -106.38125141 188.94875458 -106.39674377 186.47212219 C-106.43680777 179.43202888 -106.43805018 172.391995 -106.43579102 165.35180664 C-106.43573979 161.04171088 -106.45497322 156.73202142 -106.48512459 152.42203712 C-106.49591481 149.98955773 -106.48383908 147.55786573 -106.47129822 145.12541199 C-106.48020815 143.62225582 -106.49028445 142.11910596 -106.50170898 140.6159668 C-106.50154282 139.31120895 -106.50137665 138.00645111 -106.50120544 136.66215515 C-107.28479678 130.90901892 -109.45042512 127.23333511 -114.0625 123.5625 C-118.84704994 121.20102686 -123.8069211 121.14317923 -129 122 C-133.40647997 123.70036583 -136.1750459 125.59183709 -138.57928562 129.69577599 C-140.11958049 133.27811412 -140.37931105 135.66820946 -140.38768005 139.54727173 C-140.39758469 140.8476387 -140.40748932 142.14800568 -140.41769409 143.48777771 C-140.41345623 144.91714573 -140.40889839 146.34651282 -140.40405273 147.77587891 C-140.40975954 149.29109703 -140.41672501 150.80631086 -140.42485046 152.32151794 C-140.4427826 156.43194063 -140.44161099 160.54214977 -140.43590808 164.65259981 C-140.43281005 168.09818143 -140.43891693 171.5437224 -140.44494683 174.98929822 C-140.45899651 183.13678021 -140.4574328 191.28415741 -140.44604492 199.43164062 C-140.43461961 207.78958957 -140.44854359 216.14721553 -140.4754414 224.50512183 C-140.49775063 231.71146333 -140.50420019 238.91770464 -140.49836498 246.12407815 C-140.49502344 250.41380742 -140.4972181 254.70333083 -140.51461601 258.99303055 C-140.58853401 279.13295684 -139.66331461 297.52584971 -134 317 C-133.35933594 317.06058594 -132.71867187 317.12117188 -132.05859375 317.18359375 C-131.19363281 317.26738281 -130.32867187 317.35117187 -129.4375 317.4375 C-128.52226562 317.51742188 -127.60703125 317.59734375 -126.6640625 317.6796875 C-124 318 -124 318 -120.3125 319.0625 C-117.02671251 319.36782328 -117.02671251 319.36782328 -115.33203125 317.45703125 C-114.16482459 316.03341306 -113.01712244 314.59363829 -111.88671875 313.140625 C-108.83790075 309.68151059 -105.14427521 307.89562218 -101 306 C-100.071875 305.566875 -99.14375 305.13375 -98.1875 304.6875 C-89.0559892 302.71795845 -80.24600654 303.50327421 -72 308 C-63.63027319 314.08598707 -57.8650105 321.02827514 -55 331 C-53.79518382 340.65121168 -55.99710848 348.26511887 -60 357 C-58.65421875 357.38671875 -58.65421875 357.38671875 -57.28125 357.78125 C-48.46872796 361.05447247 -43.05307647 368.85398074 -39 377 C-37.41243437 380.49596333 -36.68090912 383.48863606 -36.375 387.3125 C-36.26285156 388.63701172 -36.26285156 388.63701172 -36.1484375 389.98828125 C-36.09945312 390.65214844 -36.05046875 391.31601562 -36 392 C-35.41992188 392.23074219 -34.83984375 392.46148437 -34.2421875 392.69921875 C-25.25394104 396.45173749 -20.00955603 401.07035131 -16 410 C-13.48993549 418.21331236 -15.03607827 425.53048498 -19 433 C-22.77733754 439.07915261 -28.03172333 443.23119305 -35 445 C-38.36106884 445.13838417 -41.70247092 445.00593013 -45.0625 444.875 C-53.01070269 444.38599839 -53.01070269 444.38599839 -59.75 448.125 C-60.39839844 448.75792969 -61.04679687 449.39085937 -61.71484375 450.04296875 C-72.50510365 459.28385799 -86.71889274 458.55337947 -100 458 C-100 467.24 -100 476.48 -100 486 C-48.52 486 2.96 486 56 486 C56 464.55 56 443.1 56 421 C60.89361702 416.10638298 60.89361702 416.10638298 66 416 C69.16748634 417.71215478 69.84578536 418.53735609 71 422 C71.10009224 424.32444039 71.13832494 426.65168741 71.14526367 428.97827148 C71.14862228 429.68429504 71.1519809 430.3903186 71.15544128 431.11773682 C71.16494214 433.45220701 71.1668939 435.78660542 71.16796875 438.12109375 C71.17118173 439.74390187 71.17454584 441.3667097 71.17805481 442.98951721 C71.18404377 446.39153719 71.18589493 449.79353176 71.18530273 453.19555664 C71.18520108 457.55472378 71.19885773 461.91372816 71.21607494 466.27285671 C71.22719302 469.62458545 71.22922201 472.9762748 71.22869301 476.3280201 C71.22987324 477.93517684 71.23429747 479.54233459 71.24202538 481.14947319 C71.25182223 483.39720952 71.24894866 485.64459196 71.24291992 487.89233398 C71.24434494 489.17124008 71.24576996 490.45014618 71.24723816 491.76780701 C71.01441128 494.81159847 70.7094729 496.50734676 69 499 C66.0255796 500.4872102 63.34203871 500.13288529 60.02210999 500.14044189 C59.29564551 500.14341302 58.56918104 500.14638414 57.82070249 500.1494453 C55.37402778 500.15815228 52.92740189 500.15964221 50.48071289 500.16113281 C48.73161209 500.16575951 46.9825123 500.17078397 45.2334137 500.17617798 C40.47315232 500.18931676 35.71290506 500.1957496 30.95262837 500.20018864 C27.98130492 500.20311648 25.00998536 500.20722069 22.03866386 500.21169281 C12.74978053 500.22537052 3.46090605 500.23503631 -5.82798666 500.2388947 C-16.5653183 500.24337879 -27.30252286 500.26094181 -38.03981584 500.2898953 C-46.33028296 500.31147813 -54.62071424 500.32159713 -62.91120917 500.32293582 C-67.8672111 500.32398613 -72.82309362 500.32994188 -77.77906609 500.34775543 C-82.43871012 500.36417789 -87.09814421 500.36642014 -91.75780678 500.35761642 C-93.47070247 500.35684296 -95.18360918 500.36122925 -96.89647675 500.37107468 C-99.22961338 500.38370195 -101.56199599 500.37796846 -103.89512634 500.36749268 C-105.20239654 500.36895924 -106.50966673 500.3704258 -107.85655117 500.3719368 C-111 500 -111 500 -112.91997528 498.69759655 C-114.79870342 495.74458783 -114.42075946 492.38172144 -114.40063477 488.99047852 C-114.41110336 487.76516922 -114.41110336 487.76516922 -114.42178345 486.5151062 C-114.44183643 483.80293577 -114.44126046 481.09114449 -114.44140625 478.37890625 C-114.45318819 476.48053473 -114.46655441 474.58217243 -114.48143005 472.68382263 C-114.51770959 467.66585014 -114.53782419 462.64795909 -114.55297852 457.62988281 C-114.5777179 449.65999473 -114.61832642 441.69028758 -114.67487907 433.72056389 C-114.6909065 430.96483276 -114.69496071 428.20927791 -114.69789124 425.45350647 C-114.73348499 416.65877777 -115.04201351 407.95600229 -115.89038086 399.19897461 C-116.00552835 397.99011644 -116.00552835 397.99011644 -116.12300205 396.75683689 C-118.16290403 377.67553239 -127.68969428 360.51672529 -137.1875 344.1875 C-150.88257412 320.61958072 -156.34500992 297.50833947 -156.25878906 270.3515625 C-156.26150991 268.87599008 -156.26507688 267.40041903 -156.26940918 265.92485046 C-156.27839933 261.97699672 -156.27504699 258.0292494 -156.26865101 254.0813942 C-156.26352831 249.92299396 -156.26829894 245.76460183 -156.27142334 241.60620117 C-156.2750417 234.63670236 -156.27031686 227.66724622 -156.26074219 220.69775391 C-156.24982745 212.66038492 -156.25341363 204.62311719 -156.264395 196.58575058 C-156.27348806 189.65028394 -156.27474431 182.71484766 -156.26951766 175.77937698 C-156.26641344 171.65174957 -156.26594647 167.5241697 -156.27259064 163.39654541 C-156.27839422 159.52218209 -156.27431248 155.64794897 -156.26280212 151.77359962 C-156.26017306 150.35831734 -156.2608904 148.94302397 -156.26532745 147.5277462 C-156.30213542 134.58865626 -155.31638465 124.657717 -146.07421875 114.984375 C-138.67126053 108.14202915 -130.93068712 105.61826373 -120.8972168 105.71020508 C-117.70251728 106.02975579 -115.15706283 106.87168619 -112.1640625 108.01953125 C-111.19162598 108.38796143 -110.21918945 108.7563916 -109.21728516 109.13598633 C-108.48558105 109.42111084 -107.75387695 109.70623535 -107 110 C-106.99635437 109.39802292 -106.99270874 108.79604584 -106.98895264 108.17582703 C-106.94687752 101.86415112 -106.87735957 95.55318557 -106.79248047 89.24194336 C-106.76439639 86.89208102 -106.74311992 84.54212643 -106.72900391 82.19213867 C-106.70740015 78.79818918 -106.66065973 75.40533446 -106.609375 72.01171875 C-106.60814636 70.97480392 -106.60691772 69.9378891 -106.60565186 68.86955261 C-106.38667993 57.76243082 -103.22952304 49.20115065 -95.515625 41.16796875 C-86.74662352 33.61083238 -77.14418196 32.29501425 -65.99560547 32.79443359 C-61.64327755 33.2427649 -57.8159634 34.94525048 -54 37 C-53.92523438 35.98421875 -53.85046875 34.9684375 -53.7734375 33.921875 C-52.66833389 21.50838236 -49.55340846 11.34495109 -40.0859375 2.62109375 C-29.318605 -5.74677701 -11.62866563 -7.61796259 0 0 Z " fill="#020202" transform="translate(177,8)"/>
<path d="M0 0 C25.64026078 22.69094406 44.10249886 52.70423729 46.73193359 87.53271484 C48.20631705 115.43778895 43.52703619 138.54687762 31.23974609 163.57177734 C30.78341797 164.52826172 30.32708984 165.48474609 29.85693359 166.47021484 C29.44701172 167.30423828 29.03708984 168.13826172 28.61474609 168.99755859 C27.25991714 172.88819571 27.12403397 176.08895324 28.73193359 179.90771484 C29.06193359 180.44396484 29.39193359 180.98021484 29.73193359 181.53271484 C30.50537109 181.48630859 31.27880859 181.43990234 32.07568359 181.39208984 C44.29094953 180.96878855 49.47671087 184.98350486 58.20108414 193.08827591 C63.65227195 198.23176529 68.93699335 203.54976355 74.24365234 208.84130859 C74.92079599 209.51562487 75.59793964 210.18994114 76.2956028 210.88469124 C79.87252377 214.44673015 83.44664449 218.01154965 87.01831055 221.57885742 C90.68286653 225.23791504 94.35662542 228.88758516 98.03259563 232.53517056 C100.88343159 235.36729593 103.72745309 238.20619176 106.56971169 241.04692268 C107.92066123 242.3948691 109.2740831 243.74034287 110.63013268 245.08315849 C121.97388036 256.32397199 131.30388351 265.88427121 133.16943359 282.40771484 C132.56686556 293.71745329 127.97454201 302.01568815 119.73193359 309.53271484 C113.30114641 314.98490398 104.34570765 317.17194047 95.97802734 316.81396484 C83.91803404 315.30384394 75.42405235 308.68276245 67.07250977 300.29321289 C66.36561005 299.59478271 65.65871033 298.89635254 64.9303894 298.17675781 C62.62077544 295.89033996 60.3223283 293.59309328 58.02490234 291.29443359 C56.4109596 289.68760067 54.7967223 288.08106356 53.1822052 286.47480774 C49.8108565 283.11686232 46.44545412 279.75308784 43.08374023 276.38549805 C38.78558827 272.08144091 34.46943701 267.79594565 30.14820385 263.51507854 C26.81344905 260.20622455 23.49028649 256.88591359 20.17028236 253.5622654 C18.58388421 251.97755486 16.99352278 250.39680111 15.39906883 248.82019615 C13.16867654 246.61204862 10.95486868 244.3884539 8.74438477 242.16040039 C8.09030136 241.51958023 7.43621796 240.87876007 6.76231384 240.21852112 C1.62120845 234.98243764 -1.83436747 229.42299432 -2.65869141 222.02880859 C-2.61228516 221.01947266 -2.56587891 220.01013672 -2.51806641 218.97021484 C-2.48197266 217.93767578 -2.44587891 216.90513672 -2.40869141 215.84130859 C-2.36228516 215.07947266 -2.31587891 214.31763672 -2.26806641 213.53271484 C-6.69665778 211.18002568 -10.51715866 211.33468889 -15.26806641 212.53271484 C-17.94631112 213.58640606 -20.43310199 214.90224916 -22.95556641 216.28271484 C-52.20791102 231.48877944 -87.3620645 235.70369821 -119.14306641 226.09130859 C-154.30484593 214.84869481 -182.53070339 191.56936338 -199.50683594 158.70507812 C-208.09284697 141.19114941 -212.64386315 122.94690195 -212.58374023 103.48266602 C-212.58059631 101.36535266 -212.60407047 99.24946453 -212.62939453 97.13232422 C-212.68943075 84.33848582 -210.86231566 71.86700945 -206.70556641 59.72021484 C-206.45653564 58.98722168 -206.20750488 58.25422852 -205.95092773 57.49902344 C-199.35870912 39.03768427 -188.63391167 23.72032998 -175.26806641 9.53271484 C-174.66865234 8.86884766 -174.06923828 8.20498047 -173.45166016 7.52099609 C-129.10676432 -39.69721912 -48.45671058 -41.34486855 0 0 Z M-110.26806641 -11.46728516 C-111.27981934 -11.26643311 -111.27981934 -11.26643311 -112.31201172 -11.06152344 C-133.05954829 -6.73693585 -150.24918012 5.02510979 -165.26806641 19.53271484 C-166.02216797 20.23525391 -166.77626953 20.93779297 -167.55322266 21.66162109 C-184.80127866 38.11207913 -197.35644705 64.61493743 -198.39404297 88.42333984 C-199.25333644 125.01401379 -191.25304413 154.55752333 -165.75244141 182.03662109 C-156.02332074 191.81163384 -145.42130032 199.07389153 -133.26806641 205.53271484 C-132.32060547 206.04705078 -131.37314453 206.56138672 -130.39697266 207.09130859 C-105.91716198 218.76741443 -73.11140071 219.19117374 -47.64941406 210.65478516 C-38.56009475 207.39876097 -29.7370468 203.66634879 -21.45947266 198.66162109 C-16.22049222 195.96275238 -10.02947652 195.89070532 -4.26806641 196.53271484 C-1.57390447 197.41535159 0.93984712 198.45434204 3.50537109 199.65771484 C5.95368776 200.77655045 5.95368776 200.77655045 9.73193359 200.53271484 C11.9553474 198.79355849 11.9553474 198.79355849 13.98193359 196.53271484 C14.68833984 195.79021484 15.39474609 195.04771484 16.12255859 194.28271484 C16.65365234 193.70521484 17.18474609 193.12771484 17.73193359 192.53271484 C17.37099609 191.72189453 17.01005859 190.91107422 16.63818359 190.07568359 C12.88669506 181.12421511 10.6728947 173.40538161 14.16943359 164.03271484 C15.64205055 160.71272893 17.25676693 157.46626684 18.86083984 154.20849609 C23.66052663 144.40179047 27.48131726 135.27598838 29.73193359 124.53271484 C29.95494141 123.62521484 30.17794922 122.71771484 30.40771484 121.78271484 C36.68920388 92.38363693 28.79050756 61.37963242 12.73193359 36.53271484 C10.24190053 33.02186362 7.57100781 29.76472136 4.73193359 26.53271484 C3.75546875 25.34162109 3.75546875 25.34162109 2.75927734 24.12646484 C-14.77783194 3.40973013 -39.69871502 -9.12020541 -66.26806641 -13.46728516 C-67.02603516 -13.59748047 -67.78400391 -13.72767578 -68.56494141 -13.86181641 C-82.61562794 -15.84264627 -96.46755217 -14.22318967 -110.26806641 -11.46728516 Z " fill="#010101" transform="translate(358.26806640625,185.46728515625)"/>
<path d="M0 0 C3.40602867 4.2223538 3.42631678 8.32439491 3.40625 13.52734375 C3.41708618 14.35271133 3.42792236 15.17807892 3.43908691 16.02845764 C3.47324898 18.66488384 3.48889642 21.30088218 3.5 23.9375 C3.04007475 44.32233617 3.04007475 44.32233617 10 63 C14.35095992 62.48823532 16.42525616 61.13750021 19.59765625 58.1640625 C20.46793457 57.34969727 21.33821289 56.53533203 22.23486328 55.69628906 C27.54992045 50.51356865 32.74945242 45.21339074 37.89282227 39.86035156 C49.82662857 27.46732132 61.97901598 19.18974392 79.64160156 18.47827148 C94.73621606 18.25311959 107.54396183 21.57998615 119 32 C123.4293399 36.71184905 125.81999502 41.83911572 126.1015625 48.34765625 C125.64996944 59.58537592 117.64845499 66.78661705 110.03222656 74.24487305 C108.70901398 75.559105 108.70901398 75.559105 107.35906982 76.89988708 C105.45368247 78.79057813 103.54585322 80.67833877 101.63324738 82.56168175 C98.59671806 85.55240428 95.57260823 88.55548559 92.55023193 91.5605011 C85.03997826 99.02393279 77.51466713 106.47213192 69.98461914 113.91558838 C64.1312788 119.70186487 58.28270142 125.49278942 52.44789481 131.29776222 C49.94181267 133.7901846 47.43189517 136.27844642 44.9119339 138.75684166 C25.96646219 157.27816643 25.96646219 157.27816643 12.5625 179.9375 C12.25119141 180.62650391 11.93988281 181.31550781 11.61914062 182.02539062 C10.42871718 184.67439606 9.27013983 187.33070555 8.18310547 190.02392578 C6.19706235 194.90146882 6.19706235 194.90146882 4 196 C-0.03191305 196.53758841 -1.5619036 196.3075996 -4.9375 193.9375 C-7 191 -7 191 -6.81640625 187.7890625 C-5.95187662 183.77665224 -4.66946243 180.16698292 -3 176.4375 C-2.69094727 175.74422607 -2.38189453 175.05095215 -2.06347656 174.33666992 C7.52023996 153.50942075 23.74169789 137.99408155 39.85216188 122.14263964 C42.29155844 119.73859467 44.72249323 117.32603249 47.15365601 114.91366577 C55.4001467 106.733459 63.65558919 98.56242168 71.93115234 90.41162109 C76.52468618 85.88716681 81.10739618 81.35203802 85.67838514 76.80480516 C88.08856187 74.40813046 90.50404729 72.0174076 92.93324661 69.6400032 C95.63033849 66.99575934 98.30841199 64.33357006 100.98291016 61.66650391 C101.78489838 60.88922943 102.5868866 60.11195496 103.41317749 59.31112671 C107.9263868 54.89081784 107.9263868 54.89081784 110.08309937 49.12240601 C110.2197995 45.97665889 110.2197995 45.97665889 108.6875 43.375 C100.133724 35.81584911 89.72516287 33.49803333 78.5703125 33.6875 C62.19453075 35.12082882 52.17810693 47.59075221 41.4987793 58.69311523 C22.88681338 77.99190947 22.88681338 77.99190947 10.6875 78.3125 C5.57087232 78.23171114 2.8165793 77.63906398 -1 74 C-12.20183124 60.45295779 -12.37372494 42.42524678 -12.37060547 25.65185547 C-12.37503825 22.97691857 -12.41164381 20.3035591 -12.44921875 17.62890625 C-12.45507776 15.91927641 -12.45905327 14.20963884 -12.4609375 12.5 C-12.47530853 11.7052124 -12.48967957 10.9104248 -12.50448608 10.09155273 C-12.47488835 6.52354839 -12.32233651 4.43217539 -10.15869141 1.53125 C-6.56801744 -1.01576505 -4.12122965 -1.44243038 0 0 Z " fill="#020201" transform="translate(245,187)"/>
<path d="M0 0 C4.97763721 3.31067148 7.91105813 6.85258549 9.75 12.5625 C10.75954314 17.98879437 10.34797045 22.17024512 7.5 26.9375 C5.49379207 29.74505444 3.41936949 32.35336663 0.75 34.5625 C0.09 34.5625 -0.57 34.5625 -1.25 34.5625 C-1.35836453 35.99833001 -1.43576167 37.4365202 -1.5 38.875 C-1.54640625 39.67550781 -1.5928125 40.47601563 -1.640625 41.30078125 C-1.44734639 43.68607589 -1.44734639 43.68607589 0.4375 45.3046875 C3.06050385 46.73138892 5.04095801 47.05795979 8 47.375 C14.95455369 48.52328849 19.17557492 51.31917408 23.5390625 56.81640625 C28.57893843 64.06570646 28.82680141 68.70271321 28.39453125 77.46875 C28.50001346 80.62234229 28.50001346 80.62234229 30.453125 82.90625 C33.00425601 84.74584107 34.59230024 85.18096536 37.6875 85.5625 C42.05817245 86.29630951 44.62775143 87.24511089 47.75 90.5625 C50.07910862 94.37741929 49.89636399 97.05894938 49.29296875 101.375 C48.5058981 104.5459321 47.10694095 106.34024139 44.75 108.5625 C40.51442519 111.08960766 36.57105402 111.15972213 31.75 110.5625 C29 109.0625 29 109.0625 26.75 107.5625 C24.33825707 106.72824215 24.33825707 106.72824215 21.75 107.5625 C19.97317972 109.15204616 18.38813508 110.87434657 16.76171875 112.6171875 C8.27862578 120.82025604 -1.61323137 123.77302583 -13.05859375 123.6328125 C-13.84713745 123.62773682 -14.63568115 123.62266113 -15.44812012 123.61743164 C-17.38212184 123.60425026 -19.31607371 123.58407538 -21.25 123.5625 C-21.2593457 122.2434668 -21.26869141 120.92443359 -21.27832031 119.56542969 C-21.31884454 114.5701583 -21.38476011 109.57546342 -21.45751953 104.58056641 C-21.4853734 102.43773933 -21.50676045 100.29481629 -21.52099609 98.15185547 C-21.72364411 69.33530763 -28.5511375 47.68852557 -42.25 22.5625 C-42.90912549 21.34519896 -43.56800705 20.12776578 -44.2265625 18.91015625 C-45.55935156 16.45618208 -46.89895877 14.0064567 -48.25 11.5625 C-44.84687262 12.62125074 -42.23646769 13.57152154 -39.25 15.5625 C-35.75 16.0625 -35.75 16.0625 -32.25 15.5625 C-29.9239711 13.40876954 -28.92254497 10.9414646 -27.4375 8.125 C-24.86025895 3.54105218 -21.52567171 0.85409746 -16.9375 -1.75 C-10.60158735 -3.37081486 -5.8391328 -3.14147085 0 0 Z " fill="#FC8096" transform="translate(98.25,328.4375)"/>
<path d="M0 0 C2.84367338 1.83239382 5.08495387 4.16893236 7.43237305 6.59008789 C8.13898071 7.29085449 8.84558838 7.99162109 9.5736084 8.71362305 C11.90369175 11.03329428 14.20767647 13.37713978 16.51171875 15.72265625 C18.12749486 17.3438763 19.74460584 18.96376696 21.36299133 20.5823822 C24.75199345 23.97911533 28.12904511 27.38715223 31.49731445 30.80444336 C35.80786548 35.177157 40.13984963 39.52781588 44.4801054 43.87102604 C47.82098359 47.21661451 51.15374364 50.57018983 54.48377419 53.9265728 C56.07808045 55.53291386 57.67405269 57.13760323 59.27173424 58.74058723 C61.5074988 60.98761158 63.73300226 63.24431764 65.95581055 65.50415039 C66.61303604 66.16158737 67.27026154 66.81902435 67.94740295 67.49638367 C73.15969074 72.83042611 77.56148116 78.06218281 77.625 85.875 C77.36388125 93.06026779 74.63025502 97.59143994 69.46484375 102.44140625 C65.10541846 105.5154973 60.34755975 105.51021734 55.16015625 105.62890625 C47.4969819 104.1038493 41.83956 98.28946223 36.48242188 92.93408203 C35.77899658 92.24233887 35.07557129 91.5505957 34.35083008 90.83789062 C32.04875731 88.56917257 29.75805412 86.28940984 27.46875 84.0078125 C25.86607155 82.41732372 24.26324535 80.82698382 22.66027832 79.23678589 C19.31294463 75.91186245 15.97206609 72.58059763 12.63476562 69.24560547 C8.35638056 64.97252352 4.0553745 60.72300499 -0.25159454 56.47876167 C-3.56452739 53.20665025 -6.86158665 49.91889501 -10.15440369 46.62655258 C-11.73398007 45.05236334 -13.31930248 43.48391803 -14.91041565 41.92139053 C-17.12971075 39.73869934 -19.32583711 37.53501778 -21.51757812 35.32470703 C-22.17826294 34.68447601 -22.83894775 34.044245 -23.51965332 33.38461304 C-26.63125943 30.19992046 -27.89775079 28.74665412 -28.51869202 24.21235657 C-27.86128725 20.14092601 -26.53910823 18.63670953 -23.65234375 15.72265625 C-22.73646484 14.79775391 -21.82058594 13.87285156 -20.87695312 12.91992188 C-20.39363525 12.45126709 -19.91031738 11.9826123 -19.41235352 11.49975586 C-17.94079929 10.06571518 -16.51038348 8.59810306 -15.08007812 7.12304688 C-14.15517578 6.20716797 -13.23027344 5.29128906 -12.27734375 4.34765625 C-11.43421631 3.51242432 -10.59108887 2.67719238 -9.72241211 1.81665039 C-6.08066235 -0.61346888 -4.33357802 -0.60008697 0 0 Z " fill="#C76E5B" transform="translate(399,382)"/>
<path d="M0 0 C0.90105469 0.00902344 1.80210937 0.01804687 2.73046875 0.02734375 C3.41753906 0.03894531 4.10460937 0.05054687 4.8125 0.0625 C4.07 0.76375 3.3275 1.465 2.5625 2.1875 C-3.65852513 8.691299 -6.43985643 14.73962042 -6.43232727 23.74194336 C-6.43459184 24.38803779 -6.43685642 25.03413221 -6.43918961 25.69980526 C-6.44445931 27.85075351 -6.43567607 30.00141009 -6.42700195 32.15234375 C-6.42811555 33.70012504 -6.43017448 35.2479059 -6.43310547 36.79568481 C-6.43781922 40.12196204 -6.43671646 43.44816862 -6.43132973 46.77444458 C-6.4237102 52.03579788 -6.43438591 57.29701553 -6.4485321 62.55834961 C-6.48624568 77.51709537 -6.50445273 92.47577912 -6.49291992 107.43457031 C-6.48670354 115.7013994 -6.49828163 123.96800903 -6.52936524 132.23478413 C-6.54801712 137.46348087 -6.54470421 142.69155587 -6.52519763 147.92024231 C-6.51831285 151.17435707 -6.53227834 154.42813505 -6.55214691 157.68218613 C-6.55719117 159.18902073 -6.55371694 160.69591207 -6.54101372 162.20270157 C-6.44077963 175.00343006 -6.44077963 175.00343006 -9.5118866 178.93920898 C-12.89651404 181.62515346 -14.87607262 182.13813908 -19.1875 182.0625 C-22.46663181 180.88696218 -24.48992686 180.0137361 -26.5625 177.1875 C-27.28690076 174.72453741 -27.32940143 172.61672575 -27.1875 170.0625 C-27.8475 169.7325 -28.5075 169.4025 -29.1875 169.0625 C-26.8775 168.7325 -24.5675 168.4025 -22.1875 168.0625 C-21.15222897 164.65275047 -21.06031803 161.53309712 -21.05619812 157.97869873 C-21.05018585 156.10722923 -21.05018585 156.10722923 -21.04405212 154.19795227 C-21.04452719 152.81784055 -21.0450633 151.43772886 -21.0456543 150.05761719 C-21.04262166 148.60204462 -21.03909992 147.14647301 -21.03512573 145.69090271 C-21.02724368 142.55723719 -21.0220944 139.42358302 -21.01883507 136.28990936 C-21.01291729 131.33062775 -20.99636916 126.37141761 -20.97749329 121.41217041 C-20.97115604 119.71311574 -20.96483041 118.01406102 -20.95851612 116.31500626 C-20.95535031 115.46414963 -20.9521845 114.61329301 -20.94892275 113.73665285 C-20.90687817 102.19310025 -20.87387766 90.64958111 -20.86157227 79.10595703 C-20.85318375 71.31669502 -20.83066406 63.52761027 -20.7922166 55.73843694 C-20.77248297 51.61897709 -20.76004237 47.49978204 -20.76505089 43.38027191 C-20.76970796 39.5026481 -20.75583475 35.62552578 -20.72803879 31.74800301 C-20.72114482 30.32910114 -20.7209811 28.91014723 -20.72823906 27.49124718 C-20.76871435 18.68556589 -20.658247 11.58473353 -14.15234375 5.00390625 C-13.48332031 4.54886719 -12.81429687 4.09382813 -12.125 3.625 C-11.45339844 3.15191406 -10.78179687 2.67882812 -10.08984375 2.19140625 C-6.66338938 0.15804832 -3.89292574 -0.05055748 0 0 Z " fill="#E5D5D0" transform="translate(159.1875,17.9375)"/>
<path d="M0 0 C0.89203125 0.01804688 1.7840625 0.03609375 2.703125 0.0546875 C3.71632813 0.08949219 3.71632813 0.08949219 4.75 0.125 C4.16992188 0.74375 4.16992188 0.74375 3.578125 1.375 C3.05734375 1.9525 2.5365625 2.53 2 3.125 C1.48953125 3.681875 0.9790625 4.23875 0.453125 4.8125 C-5.46679472 12.85055613 -5.82566263 19.29350389 -5.76416016 29.08081055 C-5.76962806 30.48273486 -5.77687361 31.88465319 -5.78575134 33.28656006 C-5.80102881 36.29148741 -5.80391561 39.29607365 -5.79698563 42.30103111 C-5.78616023 47.05407837 -5.80362538 51.80677163 -5.82479858 56.55976868 C-5.85499966 64.0759138 -5.8667481 71.59195334 -5.87037504 79.10815412 C-5.8770348 92.57489288 -5.9060552 106.04155875 -5.9554714 119.50820762 C-5.97195414 124.23189697 -5.97738927 128.95543275 -5.97388101 133.67914808 C-5.97344372 136.61625783 -5.98101169 139.55330963 -5.99055672 142.49040222 C-5.9945143 144.49919952 -5.98847221 146.50800873 -5.98213196 148.51679993 C-5.9875148 149.715336 -5.99289764 150.91387207 -5.9984436 152.14872742 C-5.99877909 153.18825908 -5.99911457 154.22779074 -5.99946022 155.29882336 C-6.38165552 159.61012042 -7.46569953 162.29588236 -10.4375 165.4375 C-13.99973996 167.57484397 -16.16034801 167.65514007 -20.25 167.125 C-22.1875 165.625 -22.1875 165.625 -23.25 164.125 C-22.59 164.125 -21.93 164.125 -21.25 164.125 C-21.24853344 163.36962196 -21.24706688 162.61424393 -21.24555588 161.83597565 C-21.20847434 143.44023259 -21.14944175 125.04467923 -21.06609726 106.649086 C-21.02631926 97.7530335 -20.99392048 88.8570693 -20.97900391 79.9609375 C-20.96598095 72.20538548 -20.93899991 64.45002786 -20.89538693 56.69458532 C-20.8727865 52.58961193 -20.85708846 48.48487817 -20.85811615 44.37983704 C-20.85886361 40.51209423 -20.84087888 36.64488086 -20.80883217 32.77727509 C-20.80034806 31.36160956 -20.79857313 29.94588455 -20.80419731 28.53020477 C-20.83469419 19.67021232 -20.54006564 12.99836404 -14.46875 6.1015625 C-13.9015625 5.65554687 -13.334375 5.20953125 -12.75 4.75 C-12.1828125 4.28851563 -11.615625 3.82703125 -11.03125 3.3515625 C-7.22669929 0.73176223 -4.6610603 -0.12265948 0 0 Z " fill="#E0D1CC" transform="translate(105.25,54.875)"/>
<path d="M0 0 C0.79921875 0.00902344 1.5984375 0.01804688 2.421875 0.02734375 C3.02515625 0.03894531 3.6284375 0.05054688 4.25 0.0625 C3.528125 0.68125 2.80625 1.3 2.0625 1.9375 C-2.90443439 6.98203543 -5.99908097 13.32530082 -6.26379395 20.41847229 C-6.23903527 22.36095023 -6.18678656 24.30321512 -6.11132812 26.24438477 C-6.09117645 27.31403473 -6.07102478 28.38368469 -6.05026245 29.48574829 C-6.00470938 31.79122364 -5.94804682 34.09650147 -5.88130188 36.40146065 C-5.77982716 40.05513682 -5.71742356 43.70757986 -5.66638184 47.36228943 C-5.51722548 57.74586733 -5.32046722 68.1275457 -5.04394531 78.50854492 C-4.87713688 84.87421049 -4.77421239 91.23828637 -4.71128845 97.60578728 C-4.67480088 100.02429676 -4.61408408 102.44257038 -4.52833557 104.85983467 C-3.88604373 123.2278407 -3.88604373 123.2278407 -6.9513855 127.88953781 C-10.35775562 131.3116827 -14.40648012 133.02488122 -18.75 135.0625 C-21.39 137.0425 -24.03 139.0225 -26.75 141.0625 C-26.75 134.1325 -26.75 127.2025 -26.75 120.0625 C-27.41 119.7325 -28.07 119.4025 -28.75 119.0625 C-27.326875 118.6603125 -27.326875 118.6603125 -25.875 118.25 C-22.49732727 117.31263412 -22.49732727 117.31263412 -20.75 114.0625 C-20.45186343 112.0893371 -20.45186343 112.0893371 -20.4984436 109.90776062 C-20.49306076 109.06247803 -20.48767792 108.21719543 -20.48213196 107.34629822 C-20.48625595 106.42208572 -20.49037994 105.49787323 -20.49462891 104.5456543 C-20.49100845 103.56974335 -20.487388 102.5938324 -20.48365784 101.58834839 C-20.47675884 99.46687951 -20.47425934 97.34539286 -20.47560501 95.22391319 C-20.47656856 91.86560905 -20.46364783 88.50762648 -20.44662476 85.14936829 C-20.40030239 75.60033677 -20.37574691 66.05133722 -20.36914062 56.50219727 C-20.36412647 50.66309245 -20.33987913 44.82432213 -20.30381393 38.98533058 C-20.29401184 36.76023173 -20.2916862 34.53508689 -20.29698563 32.30997276 C-20.3040543 29.19546143 -20.28677658 26.08194649 -20.26416016 22.9675293 C-20.27233261 22.0493895 -20.28050507 21.13124969 -20.28892517 20.18528748 C-20.20449174 13.64553429 -18.56527556 10.00742641 -13.96875 5.19921875 C-13.4015625 4.72097656 -12.834375 4.24273437 -12.25 3.75 C-11.6828125 3.25886719 -11.115625 2.76773438 -10.53125 2.26171875 C-7.17621327 0.00295498 -3.9577737 -0.05820255 0 0 Z " fill="#E5D5D0" transform="translate(213.75,49.9375)"/>
<path d="M0 0 C3.40312738 1.05875074 6.01353231 2.00902154 9 4 C9.99644531 4.11859375 10.99289063 4.2371875 12.01953125 4.359375 C15 5 15 5 16.51171875 6.765625 C17.09373047 7.99539063 17.09373047 7.99539063 17.6875 9.25 C18.41839844 10.73306641 18.41839844 10.73306641 19.1640625 12.24609375 C19.44282227 12.82601074 19.72158203 13.40592773 20.00878906 14.00341797 C21.16740559 16.33720269 22.40333547 18.6213529 23.6484375 20.91015625 C36.17352694 44.02720235 40.50936503 63.79760622 40.1875 89.9375 C40.17241707 92.08527701 40.15873509 94.23306434 40.14648438 96.38085938 C40.11378531 101.58749924 40.06220462 106.79363249 40 112 C35.71 112 31.42 112 27 112 C26.9906543 110.6809668 26.98130859 109.36193359 26.97167969 108.00292969 C26.93115546 103.0076583 26.86523989 98.01296342 26.79248047 93.01806641 C26.7646266 90.87523933 26.74323955 88.73231629 26.72900391 86.58935547 C26.52635589 57.77280763 19.6988625 36.12602557 6 11 C5.34087451 9.78269896 4.68199295 8.56526578 4.0234375 7.34765625 C2.69064844 4.89368208 1.35104123 2.4439567 0 0 Z " fill="#FC5370" transform="translate(50,340)"/>
<path d="M0 0 C2.84389715 1.83199523 5.08498194 4.16896131 7.43237305 6.59008789 C8.13898071 7.29085449 8.84558838 7.99162109 9.5736084 8.71362305 C11.90369175 11.03329428 14.20767647 13.37713978 16.51171875 15.72265625 C18.12749486 17.3438763 19.74460584 18.96376696 21.36299133 20.5823822 C24.75199345 23.97911533 28.12904511 27.38715223 31.49731445 30.80444336 C35.80786548 35.177157 40.13984963 39.52781588 44.4801054 43.87102604 C47.82098359 47.21661451 51.15374364 50.57018983 54.48377419 53.9265728 C56.07808045 55.53291386 57.67405269 57.13760323 59.27173424 58.74058723 C61.5074988 60.98761158 63.73300226 63.24431764 65.95581055 65.50415039 C66.61303604 66.16158737 67.27026154 66.81902435 67.94740295 67.49638367 C72.44004165 72.09396662 76.47040441 76.61809432 77.49609375 83.16796875 C77.46708984 84.66263672 77.46708984 84.66263672 77.4375 86.1875 C77.43621094 87.19167969 77.43492187 88.19585937 77.43359375 89.23046875 C76.95210265 92.30593893 76.05865872 93.71199468 74 96 C73.88785156 94.948125 73.88785156 94.948125 73.7734375 93.875 C73.64195312 92.92625 73.51046875 91.9775 73.375 91 C73.25898438 90.071875 73.14296875 89.14375 73.0234375 88.1875 C70.61509414 80.68670542 64.23182043 74.93104585 58.77294922 69.46655273 C57.72788712 68.40900536 57.72788712 68.40900536 56.66171265 67.33009338 C54.38139069 65.0258781 52.09366726 62.72920666 49.8046875 60.43359375 C48.20851425 58.82844721 46.61241554 57.22322654 45.01638794 55.61793518 C41.68307803 52.26819539 38.34545349 48.92282002 35.00537109 45.57983398 C30.71825052 41.28729755 26.44757293 36.97878177 22.18055534 32.66627407 C18.89651816 29.35258417 15.60137363 26.05011572 12.30298233 22.75071907 C10.72237742 21.16589808 9.14590915 19.57694053 7.5736351 17.98385429 C5.38341917 15.76693613 3.17813236 13.56619809 0.96826172 11.36889648 C0.31881592 10.70461639 -0.33062988 10.0403363 -0.99975586 9.35592651 C-1.60240265 8.76304337 -2.20504944 8.17016022 -2.82595825 7.55931091 C-3.34543093 7.03782691 -3.8649036 6.51634291 -4.40011787 5.97905636 C-5.98590054 4.78326204 -5.98590054 4.78326204 -8.07246208 5.23541355 C-10.68881474 6.27322856 -12.14516071 7.80755073 -14.109375 9.81640625 C-15.24052734 10.96206055 -15.24052734 10.96206055 -16.39453125 12.13085938 C-17.17183594 12.93330078 -17.94914062 13.73574219 -18.75 14.5625 C-19.54277344 15.36880859 -20.33554687 16.17511719 -21.15234375 17.00585938 C-23.10847046 18.99733778 -25.05725719 20.99547721 -27 23 C-27 17.3749803 -21.22045004 13.62188575 -17.4375 9.8125 C-16.54224609 8.87212891 -15.64699219 7.93175781 -14.72460938 6.96289062 C-13.84482422 6.07408203 -12.96503906 5.18527344 -12.05859375 4.26953125 C-11.25736084 3.45073486 -10.45612793 2.63193848 -9.63061523 1.78833008 C-6.05121642 -0.64499672 -4.28307967 -0.59020385 0 0 Z " fill="#A04E40" transform="translate(399,382)"/>
<path d="M0 0 C3.3076344 2.1289811 6.22312783 4.44625567 8 8 C8.4015206 12.79508255 8.58509726 17.38237817 6.9375 21.9375 C3.20491488 25.91089706 -0.62839736 28.19810541 -6.0625 28.5 C-11.36730009 27.82637459 -14.311478 25.92142158 -17.8125 21.9375 C-20.31147056 17.86023224 -20.61876234 13.6583965 -20 9 C-17.89187072 4.6150911 -15.2878075 1.81870531 -10.98828125 -0.36328125 C-7.1573003 -1.59009833 -3.77999121 -1.28439842 0 0 Z " fill="#040404" transform="translate(254,280)"/>
<path d="M0 0 C1.89492188 0.01353516 1.89492188 0.01353516 3.828125 0.02734375 C4.79234375 0.03894531 5.7565625 0.05054688 6.75 0.0625 C6.75 0.3925 6.75 0.7225 6.75 1.0625 C6.14414062 1.18625 5.53828125 1.31 4.9140625 1.4375 C-6.37504326 4.2163568 -13.2181965 11.96509848 -21.125 20 C-32.41213419 31.44788955 -44.42171651 42.09163749 -61.25 43.0625 C-60.528125 42.49402344 -59.80625 41.92554688 -59.0625 41.33984375 C-56.38241718 39.16972113 -53.80515248 36.94060694 -51.25 34.625 C-50.75435547 34.17616455 -50.25871094 33.7273291 -49.74804688 33.26489258 C-46.11335276 29.91932186 -42.64924762 26.43747365 -39.21875 22.8828125 C-38.31898438 21.95782959 -37.41921875 21.03284668 -36.4921875 20.07983398 C-34.7025769 18.2330234 -32.9258376 16.37362716 -31.1640625 14.50024414 C-22.24476486 5.3225512 -12.89345161 -0.11938381 0 0 Z " fill="#E1D1CC" transform="translate(327.25,219.9375)"/>
<path d="M0 0 C4.26968436 2.30562955 7.47787961 4.82880089 10 9 C10.66117943 14.19498122 9.90279346 17.64580981 7 22 C2.92984927 25.68251733 -0.461719 26.70596015 -5.81640625 26.453125 C-9.68379217 25.65059053 -11.34647157 23.91240925 -14 21 C-16.28466838 17.05375462 -16.47409741 13.50392543 -16 9 C-12.65564427 2.31128853 -7.58268496 -1.10580822 0 0 Z " fill="#050504" transform="translate(200,289)"/>
<path d="M0 0 C3.00869887 1.78524456 5.40952957 3.81905914 7 7 C7.55334456 12.4163919 7.50285843 16.58899309 4 21 C1.0621992 24.42743426 -1.27016637 24.94017757 -5.8125 25.3125 C-10.1779473 25.25622352 -12.65850427 23.8641392 -16 21 C-18.73478841 16.58298779 -18.78752069 12.04331434 -18 7 C-14.09282191 -0.62755881 -7.73599603 -2.11468403 0 0 Z " fill="#030303" transform="translate(222,342)"/>
<path d="M0 0 C2.82424288 2.19022918 4.41508603 3.83017207 6 7 C6.44408691 10.9079648 6.13704844 12.74548146 4.25 16.25 C1.08484 20.11852888 -0.45843731 20.8001678 -5.375 21.4375 C-9.03868179 20.99533151 -11.12114544 20.24240067 -13.83203125 17.69140625 C-16.09455008 14.41491577 -16.31780124 10.89129966 -16 7 C-12.87202685 -0.35073689 -7.30379398 -1.17652822 0 0 Z " fill="#050504" transform="translate(200,236)"/>
<path d="M0 0 C4.95 0 9.9 0 15 0 C14.01 0.495 14.01 0.495 13 1 C13 9.91 13 18.82 13 28 C8.71 28 4.42 28 0 28 C0 18.76 0 9.52 0 0 Z " fill="#E2D2CD" transform="translate(77,466)"/>
<path d="M0 0 C3.30616302 2.46203629 4.76204427 3.88160805 5.625 7.9375 C4.74931432 12.22835983 3.28826203 14.12277073 0 17 C-2.87512628 17.86949383 -5.12487372 17.86949383 -8 17 C-11.29420787 14.11756811 -12.76884408 12.25851556 -13.5625 7.9375 C-12.87020639 4.32218892 -11.54408967 2.61891584 -9 0 C-5.77509551 -1.61245225 -3.43772273 -0.81573082 0 0 Z " fill="#070707" transform="translate(299,259)"/>
<path d="M0 0 C2.875 1.5625 2.875 1.5625 5 4 C6.14009771 7.91908586 6.40888632 10.03158504 4.8125 13.8125 C2.85980888 16.16919618 1.94024566 17.18326509 -1 18 C-7.12331606 17.67772021 -7.12331606 17.67772021 -9.65234375 15.72265625 C-12.13097586 12.55431781 -12.32976515 8.92283127 -12 5 C-8.74332998 0.01322403 -5.80748975 -0.93334657 0 0 Z " fill="#060606" transform="translate(214,211)"/>
</svg>
